<?xml version="1.0" encoding="utf-8"?>
<!-- Generator: Adobe Illustrator 27.7.0, SVG Export Plug-In . SVG Version: 6.00 Build 0)  -->
<svg version="1.1" id="Layer_1" xmlns="http://www.w3.org/2000/svg" xmlns:xlink="http://www.w3.org/1999/xlink" x="0px" y="0px"
	 viewBox="0 0 128 128" style="enable-background:new 0 0 128 128;" xml:space="preserve">
<style type="text/css">
	.st0{fill-rule:evenodd;clip-rule:evenodd;fill:#FFFFFF;}
	.st1{fill:#FFFFFF;}
</style>
<g>
	<path class="st0" d="M120.5,34.2c-1.4-1.4-3.2-2.1-5.2-2.1H73.2L87.9,8.9c0.5-2-0.6-4.1-2.7-4.6c-1.2-0.3-2.6,0-3.5,0.9L64.5,32
		h-1.3L46.1,5c-1.5-1.4-3.9-1.3-5.3,0.2c-0.9,1-1.2,2.3-0.9,3.5l14.7,23.1H12.7c-4,0-7.3,3.3-7.3,7.3v77.3c0,1.9,0.8,3.8,2.1,5.2
		c1.3,1.4,3.2,2.3,5.2,2.3h102.4c2,0.1,3.9-0.7,5.4-2.1c1.4-1.4,2.1-3.2,2.1-5.2V39.4C122.6,37.4,121.8,35.6,120.5,34.2z
		 M109.3,103.6c0,2-0.7,3.9-2.1,5.3c-1.4,1.4-3.2,2.1-5.2,2.1H25.8c-1.9,0-3.8-0.8-5.2-2.1c-1.3-1.4-2.1-3.3-2-5.3V52.3
		c0-1.9,0.8-3.8,2.1-5.2C22.2,45.8,24,45,26,45h76c1.9,0,3.8,0.8,5.2,2.1c1.4,1.4,2.2,3.2,2.1,5.2V103.6z"/>
	<rect x="25.8" y="52.4" class="st1" width="76.3" height="51.2"/>
</g>
</svg>
